<svg xmlns="http://www.w3.org/2000/svg" width="16.118" height="16.039" viewBox="0 0 16.118 16.039">
    <defs>
        <style>
            .prefix__cls-1{fill:none;stroke:#929eb9;stroke-linecap:round;stroke-linejoin:round}
        </style>
    </defs>
    <g id="prefix__Icon_feather-image" data-name="Icon feather-image" transform="translate(-4 -4)">
        <path id="prefix__Path_160" d="M6.167 4.5h11.666A1.667 1.667 0 0 1 19.5 6.167v11.666a1.667 1.667 0 0 1-1.667 1.667H6.167A1.667 1.667 0 0 1 4.5 17.833V6.167A1.667 1.667 0 0 1 6.167 4.5z" class="prefix__cls-1" data-name="Path 160"/>
        <path id="prefix__Path_161" d="M13.4 11.949a1.449 1.449 0 1 1-1.451-1.449 1.449 1.449 0 0 1 1.451 1.449z" data-name="Path 161" transform="translate(-3.2 -3.2)" style="fill:#8393a8"/>
        <path id="prefix__Path_162" d="M19.416 25.57l-4.766-3.762-9.25 8.774" class="prefix__cls-1" data-name="Path 162" transform="translate(0 -11.25)"/>
    </g>
</svg>
